<?xml version="1.0" standalone="no"?>
<!DOCTYPE svg PUBLIC "-//W3C//DTD SVG 20010904//EN"
 "http://www.w3.org/TR/2001/REC-SVG-20010904/DTD/svg10.dtd">
<svg version="1.0" xmlns="http://www.w3.org/2000/svg"
 width="618.000000pt" height="223.000000pt" viewBox="0 0 618.000000 223.000000"
 preserveAspectRatio="xMidYMid meet">

<g transform="translate(0.000000,223.000000) scale(0.100000,-0.100000)"
fill="#000000" stroke="none">
<path d="M360 1155 l0 -715 608 0 c334 0 1520 0 2637 0 1117 0 2054 0 2083 0
l52 0 0 715 0 715 -2690 0 -2690 0 0 -715z m5290 604 c12 -22 13 -1208 2
-1227 -7 -10 -413 -12 -1998 -10 l-1989 3 -3 614 c-1 422 1 618 8 625 8 8 615
13 1978 16 1082 3 1973 3 1980 1 7 -2 17 -12 22 -22z m-4250 -219 l31 -39 -37
-103 c-60 -170 -65 -214 -30 -228 25 -9 42 -42 31 -60 -3 -5 -24 -10 -45 -10
-37 0 -40 -2 -50 -37 -6 -21 -17 -85 -25 -143 -18 -131 -29 -160 -62 -160 -56
0 -98 40 -107 103 -4 26 -11 47 -15 47 -5 0 -14 12 -20 28 -15 35 -68 92 -86
92 -12 0 -68 -85 -87 -132 -4 -10 -12 -18 -18 -18 -5 0 -10 -6 -10 -12 0 -7
-21 -48 -45 -90 -56 -95 -87 -116 -140 -94 -50 21 -50 45 1 117 19 27 34 52
34 57 0 4 16 25 35 47 19 22 35 46 35 52 0 7 9 18 20 25 26 16 26 32 1 18 -11
-5 -40 -10 -66 -10 -40 0 -50 5 -85 40 -22 23 -40 49 -40 59 0 52 105 82 226
63 42 -7 78 -11 79 -10 5 10 153 206 165 219 8 9 22 26 30 36 79 105 149 183
170 191 36 13 75 -4 110 -48z"/>
<path d="M1193 1344 c-13 -14 -23 -28 -23 -30 0 -5 -59 -83 -70 -94 -3 -3 -13
-17 -23 -32 l-17 -28 27 0 c68 0 101 12 113 40 6 15 10 31 9 36 -3 9 9 86 17
117 7 25 -7 21 -33 -9z"/>
<path d="M1118 1072 l-46 -3 40 -41 c44 -45 61 -41 56 13 -3 34 -3 34 -50 31z"/>
</g>
</svg>
